<svg viewBox="0 0 24 30" xmlns="http://www.w3.org/2000/svg">
  <!-- Digital Omamori favicon — same charm as header brand-mark (lavender amulet body = deterministic layer, washi-gold cord = AI layer, ✦) -->
  <path d="M12 2.2c-2.6 0-4.3 1.8-4.3 3.8 0 1.4.8 2.6 2 3.2" fill="none" stroke="#B49A63" stroke-width="1.6" stroke-linecap="round"/>
  <path d="M12 2.2c2.6 0 4.3 1.8 4.3 3.8 0 1.4-.8 2.6-2 3.2" fill="none" stroke="#B49A63" stroke-width="1.6" stroke-linecap="round"/>
  <path d="M7.2 9.6 12 7l4.8 2.6c1 .5 1.6 1.5 1.6 2.6v12.1c0 2-1.6 3.6-3.6 3.6H9.2c-2 0-3.6-1.6-3.6-3.6V12.2c0-1.1.6-2.1 1.6-2.6Z" fill="#9189C0"/>
  <path d="m12 13.2 1 2 2.1.3-1.5 1.5.3 2.1-1.9-1-1.9 1 .3-2.1-1.5-1.5 2.1-.3Z" fill="#FCFAF7"/>
</svg>
